<?xml version="1.0" encoding="UTF-8"?><svg id="Capa_1" xmlns="http://www.w3.org/2000/svg" viewBox="0 0 31 31"><defs><style>.cls-1{fill:#fff;}</style></defs><path class="cls-1" d="M20.77,13.25l-2.98-2.99s-.1,.09-.15,.14c-1.2,1.2-2.4,2.4-3.59,3.59-.37,.37-.89,.47-1.34,.26-.44-.2-.71-.65-.68-1.14,.02-.36,.21-.63,.45-.88,1.18-1.17,2.35-2.35,3.53-3.52,.04-.04,.08-.08,.13-.13-.05-.05-.1-.1-.14-.15-.82-.82-1.64-1.63-2.45-2.45-.5-.5-.52-1.21-.06-1.68,.49-.49,1.21-.48,1.71,.01,.36,.35,.71,.71,1.06,1.06,0,0,.02,.01,.05,.03,.35-.34,.71-.68,1.05-1.03,.3-.3,.57-.63,.87-.93,.67-.64,1.44-1.13,2.31-1.44,2.1-.76,4.1-.56,5.97,.69,.02,.01,.04,.02,.11,.06,.33-.34,.66-.69,.99-1.03,.3-.3,.6-.61,.9-.9,.35-.33,.91-.41,1.33-.21,.43,.2,.7,.64,.67,1.12-.02,.3-.15,.55-.36,.76-.61,.61-1.21,1.21-1.82,1.82-.04,.04-.08,.08-.1,.1,.22,.44,.46,.86,.64,1.3,1.03,2.45,.45,5.29-1.44,7.15-.56,.55-1.12,1.09-1.68,1.64-.06,.06-.13,.09-.22,.16,.41,.4,.77,.75,1.13,1.11,.21,.2,.34,.45,.37,.74,.05,.51-.22,.97-.66,1.18-.45,.21-.97,.13-1.33-.24-.82-.81-1.64-1.63-2.45-2.45-.05-.05-.08-.11-.14-.18-.09,.09-.16,.15-.23,.21-1.17,1.17-2.34,2.33-3.5,3.5-.31,.31-.67,.48-1.11,.4-.46-.09-.78-.37-.91-.82-.14-.45-.01-.85,.32-1.19,1.19-1.19,2.38-2.38,3.57-3.56,.06-.06,.14-.09,.21-.13Z"/><path class="cls-1" d="M2.79,26.56c-.55-.84-.92-1.7-1.07-2.64-.36-2.24,.23-4.18,1.83-5.8,.57-.57,1.15-1.13,1.73-1.69,.04-.04,.08-.08,.13-.13-.04-.05-.08-.09-.13-.14-.33-.33-.66-.65-.98-.98-.49-.5-.5-1.21-.01-1.67,.42-.4,1.15-.51,1.68,.03,3.15,3.16,6.31,6.31,9.47,9.47,.68,.68,1.36,1.35,2.03,2.03,.34,.35,.45,.76,.29,1.23-.15,.45-.49,.7-.95,.77-.38,.06-.72-.08-.99-.34-.33-.32-.65-.64-.97-.97-.04-.04-.09-.08-.16-.15-.62,.64-1.22,1.28-1.85,1.9-.3,.29-.62,.57-.97,.79-2.21,1.4-4.5,1.59-6.86,.36-.1-.05-.19-.11-.29-.17-.1-.06-.19-.12-.3-.2-.08,.08-.17,.16-.25,.24-.55,.55-1.1,1.11-1.66,1.65-.61,.6-1.58,.41-1.91-.37-.16-.39-.1-.93,.27-1.3,.6-.58,1.19-1.18,1.78-1.77,.04-.04,.1-.08,.16-.12Z"/></svg>