<?xml version="1.0" encoding="UTF-8"?><svg id="Capa_1" xmlns="http://www.w3.org/2000/svg" viewBox="0 0 940.58 958.87"><defs><style>.cls-1{fill:#fff;}</style></defs><g><path d="M550.07,958.87c-16.17-25.48-32.32-50.97-48.51-76.43-34.12-53.67-68.27-107.33-102.39-161-4.74-7.46-3.3-13.91,4.28-18.73,46.45-29.57,92.91-59.12,139.37-88.67,30.84-19.62,61.67-39.23,92.51-58.84,8.02-5.1,14.48-3.66,19.58,4.35,70.19,110.38,140.38,220.76,210.57,331.14,14.45,22.72,28.88,45.46,43.32,68.19h-358.73Zm-49.82-153.03c.07-12.59-10.5-28.89-21.72-33.49-8.55-3.51-14.69,.47-14.92,9.66-.3,12.33,10.15,28.8,21.39,33.72,8.77,3.84,15.19-.33,15.24-9.89Zm-73.14-80.77c0,12.65,10.59,28.82,21.87,33.42,8.21,3.35,14.3-.55,14.61-9.35,.44-12.53-9.53-28.79-20.89-34.06-9.1-4.22-15.59-.06-15.59,9.99Z"/><path d="M108.34,266.84c0-3.78,.26-7.04-.14-10.22-.14-1.08-1.75-2.29-2.97-2.87-10.19-4.85-20.64-9.2-30.64-14.41-12.02-6.27-17.11-16.71-16-30.19,.16-1.92,.31-3.83,.53-5.74,1.17-10.29,6.09-15.08,16.55-16.01,9.49-.85,18.68,.98,27.83,3.19,1.39,.34,2.77,.68,4.65,1.14,.08-1.64,.19-3,.19-4.35,.01-41.02,0-82.04,.01-123.06,0-25.69,19.31-45,44.97-45,71.57,0,143.14,0,214.72,0,25.7,0,44.96,19.21,44.99,44.95,.03,27.43,.06,54.85-.06,82.28-.02,3.62,.59,6.66,2.86,9.62,6.13,8,11.69,16.47,18.06,24.27,5.95,7.27,13.49,12.32,22.87,14.89,13.72,3.77,23.42,13.33,31.82,24.3,8.19,10.7,13.67,22.87,18.8,35.21,8.91,21.42,17.87,42.83,26.71,64.28,5.97,14.5,8.14,29.88,9.99,45.29,3.67,30.6,5.06,61.35,5.45,92.15,.17,13.32,3.72,25.59,10.97,36.81,5.61,8.69,11.07,17.47,16.58,26.22,3.12,4.97,2.34,8.22-2.71,11.41-57.21,36.21-114.43,72.4-171.61,108.65-3.21,2.03-6.42,3.19-9.64,.59-15.44-12.48-33.6-19.32-52.02-25.91-38.17-13.66-75.69-28.94-111.69-47.71-1.39-.72-2.86-1.35-4.08-2.29-.63-.49-1.23-1.67-1.07-2.35,.16-.67,1.24-1.44,2.02-1.59,1.39-.28,2.87-.14,4.31-.14,48.24,0,96.47,.02,144.71,0,20.1-.01,36.19-11.03,42.22-29.39,1.62-4.93,2.4-10.37,2.41-15.58,.16-59.42,.1-118.85,.1-178.27,0-1.44-.06-2.89,.02-4.33,.16-3.22,1.67-4.31,4.75-3.21,3.96,1.42,7.77,3.34,11.8,4.43,2.06,.55,5.19,.56,6.53-.64,1.33-1.19,1.88-4.47,1.3-6.39-6.35-20.96-9.07-42.54-11.13-64.22-.27-2.8-1.24-3.97-3.78-5.17-5.49-2.61-10.66-5.9-16.49-9.21v4.28c0,85.29,0,170.57-.02,255.86,0,17.17-7.38,30.32-22.09,39.19-6.52,3.93-13.74,5.75-21.35,5.75-72.65,.02-145.31,.08-217.96-.03-23.83-.04-43.01-19.47-43.26-43.3-.06-5.41,0-10.81,0-16.53-1.19-.33-2.3-.68-3.41-.95-8.47-2.07-13.92-7.4-15.18-15.94-2.04-13.82,.87-26.85,8.57-38.54,1.91-2.9,5.26-4.82,7.76-7.38,1.02-1.04,2.05-2.54,2.16-3.91,.29-3.46,1.22-7.64-.31-10.25-1.3-2.2-5.69-2.56-8.68-3.8-9.37-3.9-14.05-11.28-15.32-21.05-1.04-8-.25-15.94,2.38-23.5,3.08-8.84,9.87-14.04,18.73-16.43,2.59-.7,3.55-1.75,3.36-4.39-.22-2.96-.05-5.95-.05-8.84-3.97-.73-7.55-1.19-11.01-2.06-18.23-4.6-29.23-18.5-30.81-37.25-1.79-21.3,14.45-34.08,35.17-32.92,2.03,.11,4.05,.34,6.64,.56ZM260.91,32.63c-35.24,0-70.49-.01-105.73,0-19.54,0-33.68,14.16-33.69,33.69-.01,29.83,0,59.66,0,89.5,0,37.17-.03,74.34,.09,111.51,0,1.75,.81,4.19,2.1,5.14,18.83,13.87,21.62,40.74,4.63,56.6-5.92,5.52-7.62,10.82-6.81,17.99,.03,.24,.03,.48,0,.72-.29,2.23,.69,3.11,2.92,3.57,6.54,1.35,12.11,4.53,16.54,9.6,15.99,18.3,8.78,48.47-16.75,53.73-2.05,.42-2.81,1.37-2.73,3.42,.12,2.88-.16,5.79,.12,8.65,.12,1.18,1,2.75,2,3.31,5.83,3.29,9.03,8.43,9.87,14.76,1.92,14.6-.27,28.9-7.79,41.4-3.4,5.65-4.34,10.76-4.18,16.72,.04,1.44,0,2.89,0,4.33,.06,18.5,14.47,32.9,33.05,32.91,70.85,.02,141.7,.02,212.55,0,18.28,0,32.8-14.52,32.8-32.77,.02-90.1,.02-180.19-.08-270.29,0-1.96-.97-4.12-2.04-5.85-3.84-6.24-8.37-12.09-11.79-18.53-6.12-11.53-10.08-23.73-7.58-37.08,1.99-10.6,7.09-18.97,17.98-22.33,2.93-.91,3.58-2.21,3.57-5.04-.1-27.55-.04-55.09-.07-82.64-.02-18.72-14.45-33.03-33.25-33.04-35.24,0-70.49,0-105.73,0Z"/><path d="M621.59,545.28c.07,4.59-1.93,6.88-4.88,8.74-28.77,18.16-57.52,36.37-86.26,54.57-41.24,26.11-82.48,52.23-123.72,78.34-1.12,.71-2.22,1.44-3.37,2.1-4.82,2.77-9.08,1.79-12.11-2.86-2.76-4.23-5.42-8.52-8.12-12.79-2.98-4.71-2.49-7.18,2.16-10.15,17.84-11.37,35.69-22.73,53.56-34.05,48.44-30.68,96.89-61.34,145.35-91.99,5.99-3.79,12.02-7.54,18.04-11.28,3.98-2.47,6.69-1.96,9.17,1.86,2.95,4.53,5.84,9.11,8.63,13.75,.84,1.4,1.27,3.05,1.56,3.78Z"/><path class="cls-1" d="M500.25,805.84c-.05,9.57-6.47,13.73-15.24,9.89-11.24-4.92-21.7-21.39-21.39-33.72,.23-9.19,6.37-13.17,14.92-9.66,11.22,4.6,21.79,20.9,21.72,33.49Z"/><path class="cls-1" d="M427.11,725.07c0-10.05,6.49-14.21,15.59-9.99,11.37,5.27,21.34,21.53,20.89,34.06-.31,8.79-6.41,12.69-14.61,9.35-11.28-4.6-21.86-20.77-21.87-33.42Z"/><path class="cls-1" d="M260.91,32.63c35.24,0,70.49,0,105.73,0,18.8,0,33.23,14.32,33.25,33.04,.02,27.55-.03,55.09,.07,82.64,.01,2.82-.65,4.13-3.57,5.04-10.89,3.37-15.99,11.74-17.98,22.33-2.51,13.34,1.45,25.55,7.58,37.08,3.42,6.44,7.95,12.29,11.79,18.53,1.06,1.73,2.03,3.88,2.04,5.85,.1,90.1,.09,180.19,.08,270.29,0,18.25-14.53,32.77-32.8,32.77-70.85,.02-141.7,.02-212.55,0-18.58,0-32.99-14.41-33.05-32.91,0-1.44,.03-2.89,0-4.33-.16-5.96,.78-11.07,4.18-16.72,7.53-12.5,9.72-26.8,7.79-41.4-.83-6.34-4.04-11.47-9.87-14.76-1-.57-1.88-2.13-2-3.31-.29-2.86,0-5.77-.12-8.65-.09-2.05,.67-3,2.73-3.42,25.54-5.26,32.74-35.43,16.75-53.73-4.43-5.07-10.01-8.25-16.54-9.6-2.22-.46-3.2-1.34-2.92-3.57,.03-.24,.03-.48,0-.72-.81-7.17,.89-12.47,6.81-17.99,16.99-15.85,14.2-42.73-4.63-56.6-1.29-.95-2.09-3.39-2.1-5.14-.12-37.17-.09-74.34-.09-111.51,0-29.83,0-59.66,0-89.5,0-19.54,14.15-33.68,33.69-33.69,35.24-.02,70.49,0,105.73,0Zm43.2,407.59c.34-23.74-18.76-43.42-42.53-43.83-24.25-.42-43.96,18.63-44.27,42.77-.31,24.06,18.62,43.59,42.68,44.04,24.05,.45,43.77-18.77,44.12-42.99Zm-127.43-142.66v62c18.58,0,36.84,.03,55.11-.11,.78,0,1.54-1.58,2.31-2.42-.27-.31-.54-.63-.81-.94-1.31,0-2.61,0-3.92,0-14.92,0-29.83-.15-44.75,.09-3.82,.06-4.55-1.17-4.52-4.68,.17-16.96,.05-33.92,.1-50.88,0-2.42-.21-4.21-3.53-3.05Zm168.16-.05c-3.69-1.09-3.53,1.09-3.53,3.29,.02,16.94-.11,33.88,.1,50.82,.05,3.76-1.11,4.59-4.68,4.55-15.37-.19-30.75-.07-46.13-.09-1.83,0-3.74,.03-2.68,2.6,.26,.63,2.05,.86,3.14,.86,16.82,.05,33.64,.04,50.46,.03,1.05,0,2.1-.14,3.32-.22v-61.83Zm-164.66-54.44v-48.51h53.18c1.18-3.54-.82-3.49-2.9-3.49-16.96,.02-33.91,0-50.87,.02-1.02,0-2.04,.19-3.22,.31,0,16.85,.02,33.31-.01,49.78,0,2.73,1.54,2.48,3.83,1.89Zm164.63-51.8c-1.13-.07-2.06-.18-3-.19-16.96-.01-33.92-.04-50.88,.06-1.1,0-3.05,.91-3.15,1.6-.37,2.66,1.94,1.79,3.27,1.8,15.04,.06,30.07,.03,45.11,.04q5.15,0,5.15,5.33c0,13.47,.04,26.94-.03,40.42-.01,2.69,.71,3.9,3.52,2.69v-51.75Zm-83.19-34.11l.66-1.41c-.57-.7-1.01-1.73-1.75-2.03-2.93-1.19-2.89-2.73-1.85-5.54,.94-2.55,.83-5.67,.48-8.45-.55-4.28-3.36-6.48-7.59-6.74-4.92-.31-8.61,1.65-9.47,5.86-.63,3.06-.71,6.5,.06,9.49,.5,1.95,2.71,4.32,4.62,4.87,4.87,1.42,10.52-.83,14.84,3.96Zm12.24-13.69c3.07-2.79,3.8-5.84,1.83-8.23-1.43-1.74-8.91-3.08-10.54-1.8-.4,.31-.71,1.01-.72,1.53-.06,5.65-.08,11.29,.01,16.94,0,.57,.86,1.12,1.33,1.68,.42-.6,1.11-1.16,1.21-1.81,.2-1.29-.1-2.66,.12-3.95,.2-1.13,.82-2.19,1.25-3.29,1.25,.56,2.93,.8,3.64,1.76,1.18,1.59,1.6,3.74,2.62,5.48,.52,.89,1.67,1.4,2.53,2.09,.31-.32,.62-.63,.93-.95-1.35-3.02-2.71-6.05-4.23-9.44Zm58.13,9.36c0-6.11,.03-12.79-.06-19.47,0-.53-.9-1.05-1.39-1.57-.41,.6-1.12,1.18-1.18,1.81-.16,1.88-.06,3.78-.06,6.01-.95-.36-1.49-.57-2.03-.76-3.79-1.3-6.75,.17-7.89,3.9-1.54,5.04,.27,10.17,3.96,10.95,1.01,.21,2.12-.04,3.18-.16,1.52-.16,3.04-.4,5.47-.72Zm-148.63-16.72c.04-.72,.14-1.33,.06-1.36-1.93-.6-3.99-1.81-5.8-1.51-1.64,.27-3.8,1.94-4.28,3.46-.49,1.54,.35,3.96,1.41,5.42,.96,1.32,3.01,1.83,4.56,2.73,1.73,1,3.69,2.39,2.38,4.43-.8,1.25-3.03,1.93-4.71,2.17-1.34,.19-2.83-.67-4.78-1.2,.47,1.16,.65,2.26,.96,2.3,2.75,.33,5.68,1.1,8.22,.43,1.47-.39,2.92-3.03,3.32-4.89,.61-2.86-1.64-4.43-3.99-5.72-2.16-1.18-5.91-1.64-4.75-5.17,1.26-3.81,4.54-1.62,7.4-1.1Zm29.48,16.96c0-2.92,.36-6.18-.14-9.3-.29-1.82-1.71-4.57-3.06-4.86-2.28-.49-4.92,.61-7.38,1.14-.11,.02-.01,.98-.01,1.59,6.17-2.17,7.76-1.54,7.66,2.96-1.27,.15-2.58,.24-3.85,.47-3.78,.67-5.53,2.88-4.67,5.81,.76,2.62,3.48,3.59,6.86,2.64,1.21-.34,2.54-.26,4.59-.44Zm88.85-7.04c-.11,4.91,2.16,7.7,6.43,7.89,4.52,.2,7.65-2.81,7.84-7.55,.2-4.81-2.41-7.92-6.77-8.06-4.63-.16-7.38,2.67-7.5,7.73Zm37.23,.7c2.64,0,5.28,.19,7.86-.11,.82-.1,2.08-1.48,2.12-2.33,.16-3.46-2.34-5.85-5.82-5.99-3.26-.13-5.83,1.74-6.71,4.88-1.17,4.2,.1,8.49,2.95,9.96,3.15,1.62,7.63,.75,8.86-1.71-8.74,.19-8.99,.08-9.27-4.71Zm-121.1-7.38c0,3.81-.05,8.1,.05,12.39,.01,.63,.74,1.24,1.14,1.85,.41-.6,1.14-1.18,1.18-1.8,.15-2.27-.44-4.72,.23-6.79,.55-1.72,2.24-3.87,3.83-4.28,2.3-.6,3.03,1.79,3.13,3.84,.11,2.4,0,4.8,.15,7.2,.04,.64,.71,1.23,1.09,1.84,.48-.54,1.37-1.07,1.37-1.61,.02-3.23,.12-6.5-.35-9.68-.51-3.42-3.51-4.7-6.84-3.57-1.3,.44-2.77,.37-4.98,.62Zm81.29,2.42c-.79-2.96-2.79-3.98-5.96-3.28-3.68,.81-5.64,4.61-4.93,9.53,.58,4.02,3.06,6.24,6.79,5.85,1.98-.21,4.05-.62,4.3-2.38-2.89-.42-6.4-.03-7.08-1.24-1.16-2.06-1.33-5.4-.5-7.69,1.41-3.9,4.72-1.42,7.38-.79Zm-100.37,9.63c-2.71-.34-6.22,.11-6.91-1.07-1.19-2.05-1.4-5.38-.63-7.71,1.28-3.89,4.71-1.37,7.65-1.02-1.24-3.61-3.79-3.51-6.25-3.07-3.73,.67-5.47,4.26-4.87,9.53,.42,3.66,2.64,5.92,6.09,5.83,2.16-.06,4.41-.38,4.92-2.5Z"/><path d="M304.12,440.21c-.35,24.22-20.07,43.44-44.12,42.99-24.07-.45-42.99-19.97-42.68-44.04,.31-24.14,20.02-43.19,44.27-42.77,23.77,.41,42.87,20.09,42.53,43.83Zm-38.78,6.35c-.33-.04-.66-.09-.99-.13-.09-1.6-.04-3.23-.32-4.79-.11-.6-.98-1.07-1.5-1.6-.38,.53-.99,1.01-1.12,1.59-.79,3.66,.97,6.41,3.54,8.66,3.02,2.64,3.09,7.14,.12,9.76-.71,.62-.9,1.82-1.34,2.75,1.06,.32,2.17,.97,3.18,.83,.7-.1,1.55-1.2,1.78-2.01,.39-1.37,.35-2.86,.57-5.1,1.9,3.01,3.17,5.04,4.4,6.98,2.69,.83,4.65,.32,4.98-3.58,.75,1.14,1.04,1.57,1.33,2,.41,.59,.77,1.24,1.28,1.73,.11,.11,1.05-.29,1.11-.56,.16-.79,.35-1.77,.02-2.41-.69-1.33-1.72-2.49-2.61-3.72-.55-.76-1.09-1.51-1.64-2.27,1.1-.4,2.2-.79,3.53-1.27,.26,1.09,.24,1.77,.56,2.17,.49,.6,1.23,1,1.87,1.48,.3-.82,.6-1.63,.9-2.45-2.49-.79-1.72-5.31-5.46-4.77-.41,.06-1.15-.65-1.36-1.17-.13-.32,.57-1.37,.65-1.35,3.57,1.18,3.46-3.08,5.7-3.91,.39-.14,.39-1.72,.29-2.59-.04-.34-1.18-.93-1.3-.82-.55,.49-.97,1.16-1.34,1.82-.22,.38-.26,.87-.4,1.36l-2.62,.28c-1.56,1.51-2.33,2.77-3.39,3.08-.58,.17-1.75-1.2-2.43-2.05-1.02-1.27-1.76-2.77-2.83-3.99-.21-.24-1.72,.14-2.05,.63-1.17,1.71-2.1,3.59-3.12,5.41Zm-5.36,17.21c0-7.69,.06-14.86-.1-22.03-.02-.66-1.48-1.83-2.3-1.85-6.12-.17-12.24-.08-18.36-.12-1.92-.01-2.89,.74-2.87,2.76,.04,6.24-.06,12.48,.13,18.72,.03,.86,1.35,2.4,2.1,2.42,6.94,.19,13.89,.11,21.41,.11Zm-.2-47.86c-7.27,0-14.33-.04-21.38,.07-.67,.01-1.89,1-1.89,1.55-.13,7.18-.09,14.35-.09,21.66h23.36v-23.28Zm1.64,23.52c7.6,0,14.78,.06,21.95-.11,.59-.01,1.62-1.59,1.64-2.46,.14-6.13,.18-12.26-.03-18.39-.03-.89-1.53-2.44-2.39-2.47-6.24-.21-12.5-.17-18.75-.01-.82,.02-2.3,1.18-2.31,1.84-.17,7.05-.11,14.11-.11,21.6Z"/><path d="M176.69,297.55c3.32-1.16,3.53,.64,3.53,3.05-.05,16.96,.07,33.92-.1,50.88-.04,3.51,.7,4.75,4.52,4.68,14.91-.24,29.83-.09,44.75-.09,1.31,0,2.61,0,3.92,0,.27,.31,.54,.63,.81,.94-.77,.84-1.54,2.41-2.31,2.42-18.26,.14-36.53,.11-55.11,.11v-62Z"/><path d="M344.85,297.5v61.83c-1.22,.08-2.27,.22-3.32,.22-16.82,.01-33.64,.03-50.46-.03-1.09,0-2.89-.24-3.14-.86-1.06-2.56,.85-2.6,2.68-2.6,15.38,.01,30.76-.11,46.13,.09,3.57,.04,4.73-.79,4.68-4.55-.21-16.94-.08-33.88-.1-50.82,0-2.19-.16-4.38,3.53-3.29Z"/><path d="M180.19,243.06c-2.29,.59-3.84,.84-3.83-1.89,.03-16.47,.01-32.93,.01-49.78,1.18-.12,2.2-.31,3.22-.31,16.96-.02,33.91,0,50.87-.02,2.09,0,4.08-.05,2.9,3.49h-53.18v48.51Z"/><path d="M344.82,191.26v51.75c-2.82,1.21-3.54,0-3.52-2.69,.06-13.47,.03-26.94,.03-40.42q0-5.32-5.15-5.33c-15.04,0-30.07,.02-45.11-.04-1.33,0-3.64,.86-3.27-1.8,.09-.69,2.05-1.59,3.15-1.6,16.96-.1,33.92-.07,50.88-.06,.93,0,1.87,.11,3,.19Z"/><path d="M261.63,157.15c-4.32-4.79-9.96-2.54-14.84-3.96-1.91-.56-4.12-2.92-4.62-4.87-.77-2.99-.69-6.43-.06-9.49,.86-4.21,4.55-6.17,9.47-5.86,4.23,.26,7.04,2.47,7.59,6.74,.36,2.78,.46,5.9-.48,8.45-1.04,2.82-1.08,4.35,1.85,5.54,.74,.3,1.17,1.33,1.75,2.03l-.66,1.41Zm-18.51-13.8c1.52,2.81,2.35,5.52,4.12,7.29,2,2.02,5.92,1.13,7.75-1.05,2.34-2.78,2.45-9.93,.06-12.55-2.15-2.36-5.19-2.91-7.44-1.02-1.96,1.65-2.86,4.55-4.48,7.32Z"/><path d="M273.88,143.46c1.52,3.4,2.87,6.42,4.23,9.44-.31,.32-.62,.63-.93,.95-.86-.68-2.01-1.2-2.53-2.09-1.03-1.74-1.44-3.88-2.62-5.48-.71-.96-2.39-1.2-3.64-1.76-.43,1.09-1.05,2.15-1.25,3.29-.22,1.28,.07,2.65-.12,3.95-.1,.65-.79,1.21-1.21,1.81-.46-.56-1.32-1.11-1.33-1.68-.09-5.64-.07-11.29-.01-16.94,0-.52,.31-1.22,.72-1.53,1.63-1.27,9.11,.06,10.54,1.8,1.96,2.39,1.24,5.44-1.83,8.23Zm-4.77-8.2c-2.78-.15-1.94,2.15-2,3.75-.07,1.61-.42,3.63,2.29,3.35,2.22-.22,4.4-.67,4.4-3.59,0-2.95-2.15-3.33-4.69-3.51Z"/><path d="M332.01,152.82c-2.43,.33-3.95,.56-5.47,.72-1.06,.11-2.17,.37-3.18,.16-3.69-.78-5.49-5.91-3.96-10.95,1.14-3.74,4.1-5.21,7.89-3.9,.54,.19,1.07,.4,2.03,.76,0-2.22-.1-4.13,.06-6.01,.05-.63,.77-1.21,1.18-1.81,.48,.52,1.38,1.04,1.39,1.57,.1,6.68,.06,13.36,.06,19.47Zm-2.05-6.24l-.71-.41c0-.84,.34-1.97-.07-2.47-1-1.21-2.25-2.74-3.59-2.97-1.01-.17-3.1,1.31-3.34,2.36-.48,2.1-.44,4.55,.17,6.61,.65,2.18,2.83,2.83,4.64,1.29,1.29-1.1,1.96-2.92,2.91-4.42Z"/><path d="M183.38,136.09c-2.86-.53-6.14-2.71-7.4,1.1-1.17,3.53,2.59,3.99,4.75,5.17,2.35,1.28,4.6,2.86,3.99,5.72-.39,1.86-1.84,4.5-3.32,4.89-2.54,.66-5.47-.1-8.22-.43-.31-.04-.5-1.14-.96-2.3,1.94,.53,3.43,1.39,4.78,1.2,1.68-.24,3.91-.91,4.71-2.17,1.31-2.05-.65-3.43-2.38-4.43-1.55-.9-3.6-1.41-4.56-2.73-1.06-1.45-1.91-3.87-1.41-5.42,.48-1.51,2.64-3.18,4.28-3.46,1.81-.3,3.87,.9,5.8,1.51,.08,.02-.02,.63-.06,1.36Z"/><path d="M212.85,153.05c-2.05,.18-3.38,.1-4.59,.44-3.38,.96-6.1-.01-6.86-2.64-.85-2.93,.89-5.14,4.67-5.81,1.28-.23,2.58-.32,3.85-.47,.1-4.5-1.49-5.13-7.66-2.96,0-.61-.09-1.57,.01-1.59,2.47-.53,5.1-1.64,7.38-1.14,1.35,.29,2.77,3.04,3.06,4.86,.5,3.12,.14,6.38,.14,9.3Zm-2.8-6.26c-2.62,.12-5.51-.85-6.12,2.69-.11,.65,1.6,2.31,2.44,2.29,2.72-.07,4.4-1.51,3.68-4.98Z"/><path d="M301.71,146.01c.12-5.05,2.87-7.89,7.5-7.73,4.36,.15,6.97,3.25,6.77,8.06-.19,4.74-3.33,7.76-7.84,7.55-4.27-.19-6.54-2.98-6.43-7.89Zm6.97-5.61c-2.79,.09-4.38,2.25-4.33,5.89,.06,3.43,1.66,5.48,4.32,5.5,2.84,.03,4.76-2.52,4.59-6.08-.16-3.33-1.94-5.39-4.59-5.31Z"/><path d="M338.94,146.71c.29,4.79,.54,4.9,9.27,4.71-1.23,2.46-5.72,3.33-8.86,1.71-2.85-1.47-4.12-5.76-2.95-9.96,.88-3.14,3.44-5.01,6.71-4.88,3.48,.13,5.98,2.53,5.82,5.99-.04,.84-1.3,2.23-2.12,2.33-2.58,.3-5.22,.11-7.86,.11Zm7.31-2.09c.11-2.76-1.1-4.32-3.66-4.27-2.5,.05-3.71,1.58-3.6,4.27h7.26Z"/><path d="M217.84,139.33c2.21-.25,3.68-.18,4.98-.62,3.33-1.13,6.33,.15,6.84,3.57,.47,3.18,.37,6.45,.35,9.68,0,.54-.89,1.08-1.37,1.61-.38-.61-1.05-1.21-1.09-1.84-.16-2.39-.04-4.8-.15-7.2-.1-2.04-.82-4.43-3.13-3.84-1.59,.41-3.28,2.56-3.83,4.28-.66,2.07-.08,4.52-.23,6.79-.04,.62-.77,1.2-1.18,1.8-.4-.62-1.13-1.23-1.14-1.85-.1-4.29-.05-8.58-.05-12.39Z"/><path d="M299.13,141.75c-2.66-.63-5.97-3.11-7.38,.79-.83,2.29-.66,5.64,.5,7.69,.68,1.21,4.19,.81,7.08,1.24-.25,1.76-2.32,2.17-4.3,2.38-3.73,.39-6.21-1.83-6.79-5.85-.71-4.92,1.26-8.72,4.93-9.53,3.17-.7,5.17,.32,5.96,3.28Z"/><path d="M198.76,151.39c-.51,2.12-2.76,2.44-4.92,2.5-3.45,.09-5.67-2.17-6.09-5.83-.6-5.27,1.15-8.86,4.87-9.53,2.46-.44,5.01-.54,6.25,3.07-2.94-.35-6.37-2.87-7.65,1.02-.77,2.33-.56,5.66,.63,7.71,.69,1.19,4.2,.73,6.91,1.07Z"/><path class="cls-1" d="M265.33,446.56c1.02-1.82,1.94-3.7,3.12-5.41,.34-.49,1.84-.87,2.05-.63,1.07,1.22,1.81,2.72,2.83,3.99,.68,.85,1.85,2.21,2.43,2.05,1.05-.3,1.83-1.57,3.39-3.08l2.62-.28c.14-.49,.18-.97,.4-1.36,.37-.66,.79-1.33,1.34-1.82,.12-.11,1.26,.48,1.3,.82,.11,.88,.1,2.45-.29,2.59-2.24,.83-2.14,5.09-5.7,3.91-.08-.03-.79,1.03-.65,1.35,.21,.51,.95,1.23,1.36,1.17,3.74-.54,2.97,3.98,5.46,4.77-.3,.82-.6,1.63-.9,2.45-.63-.48-1.37-.88-1.87-1.48-.33-.4-.3-1.08-.56-2.17-1.33,.48-2.43,.87-3.53,1.27,.55,.76,1.09,1.51,1.64,2.27,.89,1.23,1.91,2.39,2.61,3.72,.33,.64,.14,1.63-.02,2.41-.06,.27-1,.66-1.11,.56-.51-.49-.87-1.14-1.28-1.73-.29-.43-.57-.86-1.33-2-.33,3.9-2.29,4.41-4.98,3.58-1.23-1.95-2.5-3.97-4.4-6.98-.22,2.24-.17,3.73-.57,5.1-.23,.81-1.09,1.91-1.78,2.01-1,.14-2.11-.52-3.18-.83,.43-.93,.63-2.13,1.34-2.75,2.98-2.61,2.9-7.11-.12-9.76-2.57-2.25-4.33-5-3.54-8.66,.13-.58,.73-1.07,1.12-1.59,.52,.53,1.39,.99,1.5,1.6,.29,1.57,.24,3.19,.32,4.79,.33,.04,.66,.09,.99,.13Zm8.85,7.09c-.8,.24-1.93,.58-3.06,.93,.59,.83,1.26,1.62,1.75,2.5,.33,.6,.23,1.56,.68,1.95,.62,.53,1.57,.86,2.4,.91,.53,.03,1.1-.6,1.65-.94-.39-.61-.77-1.22-1.16-1.82-.65-1.01-1.3-2.02-2.26-3.52Z"/><path class="cls-1" d="M259.97,463.77c-7.52,0-14.47,.08-21.41-.11-.76-.02-2.08-1.55-2.1-2.42-.19-6.24-.08-12.48-.13-18.72-.01-2.02,.96-2.77,2.87-2.76,6.12,.04,12.24-.04,18.36,.12,.82,.02,2.29,1.19,2.3,1.85,.17,7.17,.1,14.35,.1,22.03Zm-1-22.6c-6.71,0-13.15-.07-19.59,.11-.62,.02-1.69,1.54-1.72,2.38-.15,5.51-.15,11.03,0,16.55,.02,.82,1.15,2.3,1.8,2.32,6.44,.17,12.89,.11,19.51,.11v-21.46Z"/><path class="cls-1" d="M259.77,415.91v23.28h-23.36c0-7.3-.04-14.48,.09-21.66,0-.55,1.23-1.54,1.89-1.55,7.05-.11,14.11-.07,21.38-.07Zm-.77,.9c-6.76,0-13.19-.04-19.63,.06-.59,0-1.66,.89-1.67,1.37-.11,6.65-.08,13.3-.08,19.89h21.37v-21.33Z"/><path class="cls-1" d="M261.41,439.43c0-7.49-.06-14.55,.11-21.6,.02-.66,1.49-1.82,2.31-1.84,6.25-.16,12.5-.19,18.75,.01,.86,.03,2.36,1.58,2.39,2.47,.21,6.12,.18,12.26,.03,18.39-.02,.87-1.05,2.45-1.64,2.46-7.17,.17-14.35,.11-21.95,.11Zm22.41-1.21c0-6.62,.07-12.96-.1-19.3-.02-.73-1.35-2.03-2.1-2.05-5.77-.17-11.54-.15-17.31,0-.71,.02-1.98,1.17-2,1.83-.15,6.45-.09,12.9-.09,19.52h21.59Z"/><path class="cls-1" d="M243.12,143.35c1.62-2.77,2.52-5.67,4.48-7.32,2.25-1.9,5.29-1.34,7.44,1.02,2.39,2.62,2.28,9.77-.06,12.55-1.83,2.18-5.75,3.06-7.75,1.05-1.77-1.78-2.6-4.49-4.12-7.29Z"/><path class="cls-1" d="M269.11,135.26c2.54,.18,4.68,.57,4.69,3.51,0,2.92-2.18,3.37-4.4,3.59-2.71,.27-2.36-1.74-2.29-3.35,.07-1.6-.78-3.9,2-3.75Z"/><path class="cls-1" d="M329.96,146.58c-.95,1.5-1.62,3.32-2.91,4.42-1.81,1.54-3.99,.89-4.64-1.29-.62-2.07-.65-4.51-.17-6.61,.24-1.06,2.33-2.54,3.34-2.36,1.35,.23,2.6,1.76,3.59,2.97,.41,.5,.07,1.63,.07,2.47l.71,.41Z"/><path class="cls-1" d="M210.05,146.79c.72,3.47-.96,4.91-3.68,4.98-.84,.02-2.55-1.64-2.44-2.29,.61-3.54,3.5-2.57,6.12-2.69Z"/><path class="cls-1" d="M308.67,140.4c2.65-.08,4.43,1.97,4.59,5.31,.17,3.56-1.75,6.11-4.59,6.08-2.66-.02-4.27-2.07-4.32-5.5-.06-3.64,1.53-5.8,4.33-5.89Z"/><path class="cls-1" d="M346.25,144.62h-7.26c-.12-2.69,1.1-4.22,3.6-4.27,2.56-.05,3.77,1.51,3.66,4.27Z"/><path d="M274.18,453.66c.96,1.5,1.61,2.51,2.26,3.52,.39,.61,.77,1.22,1.16,1.82-.55,.34-1.12,.97-1.65,.94-.83-.05-1.77-.38-2.4-.91-.45-.38-.35-1.35-.68-1.95-.49-.88-1.16-1.67-1.75-2.5,1.13-.34,2.26-.69,3.06-.93Z"/><path d="M258.96,441.17v21.46c-6.61,0-13.06,.07-19.51-.11-.65-.02-1.77-1.49-1.8-2.32-.16-5.51-.16-11.03,0-16.55,.02-.85,1.1-2.37,1.72-2.38,6.44-.18,12.89-.11,19.59-.11Zm-15.03,15.35h8.82v-9.25c-11.16-.53-9.44-1.58-9.26,8.62,0,.1,.13,.19,.44,.64Z"/><path d="M259,416.81v21.33h-21.37c0-6.6-.04-13.25,.08-19.89,0-.49,1.08-1.36,1.67-1.37,6.43-.1,12.87-.06,19.63-.06Zm-5.51,15.32c-.45-3.33,.06-7.02-1.55-8.96-1.1-1.33-6.5-1.3-7.55,.03-1.57,2-1.01,5.67-1.38,8.92h10.48Z"/><path d="M283.81,438.22h-21.59c0-6.62-.06-13.07,.09-19.52,.02-.65,1.29-1.81,2-1.83,5.77-.15,11.54-.17,17.31,0,.75,.02,2.08,1.32,2.1,2.05,.17,6.34,.1,12.68,.1,19.3Zm-6.06-15.03c-9.02-1.68-10.09-.76-9.38,7.7,.03,.35,.2,.68,.37,1.23h9.01v-8.93Z"/><path class="cls-1" d="M243.93,456.52c-.31-.44-.44-.54-.44-.64-.18-10.2-1.9-9.14,9.26-8.62v9.25h-8.82Z"/><path class="cls-1" d="M253.5,432.13h-10.48c.38-3.25-.19-6.92,1.38-8.92,1.04-1.33,6.45-1.36,7.55-.03,1.61,1.94,1.1,5.63,1.55,8.96Z"/><path class="cls-1" d="M277.75,423.19v8.93h-9.01c-.17-.55-.34-.89-.37-1.23-.71-8.46,.36-9.38,9.38-7.7Z"/></g><g><path d="M215.54,439.8c-.02-24.94,20.18-45.14,45.12-45.12,24.86,.01,45.15,20.38,45.06,45.24-.08,24.8-20.22,44.9-45.04,44.95-24.96,.05-45.12-20.07-45.14-45.07Zm44.96-1.93c-5.48,0-10.96-.09-16.44,.09-.97,.03-1.89,1.21-2.84,1.86,.96,.64,1.91,1.83,2.88,1.84,10.96,.13,21.92,.13,32.88,0,.99-.01,2.7-1.03,2.82-1.78,.29-1.86-1.38-2.03-2.86-2.03-5.48,0-10.96,0-16.44,.01Zm15.76-13.72c0,2.56-.15,4.78,.08,6.96,.08,.78,1.07,1.46,1.64,2.19,.68-.72,1.88-1.41,1.94-2.18,.23-2.85,.24-5.75-.04-8.6-.08-.78-1.43-1.96-2.29-2.04-2.66-.26-5.38-.23-8.05,0-.83,.07-1.58,1.12-2.36,1.73,.82,.65,1.59,1.75,2.48,1.87,2.07,.28,4.2,.09,6.6,.09Zm-31.29,0c2.65,0,4.79,.18,6.87-.09,.8-.1,1.48-1.22,2.21-1.88-.71-.58-1.39-1.61-2.14-1.67-2.77-.22-5.56-.15-8.34-.13-1.53,.01-2.41,.78-2.4,2.4,.02,2.68-.16,5.38,.1,8.04,.09,.88,1.26,1.66,1.93,2.49,.59-.82,1.58-1.59,1.69-2.47,.25-2.08,.08-4.21,.08-6.7Zm31.29,31.29c-2.52,0-4.66-.17-6.74,.08-.83,.1-1.55,1.14-2.32,1.75,.74,.64,1.44,1.75,2.22,1.82,2.76,.23,5.57,.26,8.33-.01,.82-.08,2.07-1.34,2.16-2.16,.27-2.75,.25-5.56,.03-8.32-.07-.82-1.19-1.55-1.83-2.31-.62,.78-1.66,1.51-1.76,2.36-.26,2.09-.08,4.24-.08,6.8Zm-31.29,.01c0-2.44,.2-4.57-.09-6.64-.13-.91-1.24-1.68-1.9-2.52-.6,.8-1.65,1.57-1.72,2.41-.22,2.66-.27,5.38,.04,8.03,.1,.89,1.39,2.23,2.26,2.33,2.65,.31,5.38,.28,8.04,.03,.88-.08,1.65-1.25,2.47-1.92-.82-.58-1.59-1.55-2.47-1.65-2.08-.25-4.21-.08-6.63-.08Z"/><path class="cls-1" d="M260.5,437.86c5.48,0,10.96,0,16.44,0,1.48,0,3.15,.16,2.86,2.03-.12,.75-1.82,1.77-2.82,1.78-10.96,.13-21.92,.13-32.88,0-.97-.01-1.92-1.2-2.88-1.84,.95-.65,1.87-1.83,2.84-1.86,5.47-.18,10.96-.09,16.44-.09Z"/><path class="cls-1" d="M276.26,424.14c-2.39,0-4.53,.19-6.6-.09-.9-.12-1.66-1.22-2.48-1.87,.78-.6,1.53-1.66,2.36-1.73,2.67-.23,5.39-.26,8.05,0,.86,.09,2.21,1.26,2.29,2.04,.28,2.84,.27,5.74,.04,8.6-.06,.77-1.27,1.46-1.94,2.18-.57-.73-1.56-1.41-1.64-2.19-.23-2.18-.08-4.39-.08-6.96Z"/><path class="cls-1" d="M244.97,424.13c0,2.49,.17,4.62-.08,6.7-.11,.88-1.1,1.65-1.69,2.47-.68-.83-1.85-1.6-1.93-2.49-.26-2.66-.08-5.36-.1-8.04,0-1.63,.87-2.39,2.4-2.4,2.78-.02,5.57-.09,8.34,.13,.75,.06,1.43,1.09,2.14,1.67-.73,.66-1.41,1.77-2.21,1.88-2.09,.27-4.23,.09-6.87,.09Z"/><path class="cls-1" d="M276.25,455.42c0-2.56-.17-4.7,.08-6.8,.1-.84,1.15-1.57,1.76-2.36,.64,.77,1.76,1.5,1.83,2.31,.23,2.76,.25,5.57-.03,8.32-.08,.82-1.34,2.08-2.16,2.16-2.76,.27-5.57,.24-8.33,.01-.79-.06-1.48-1.18-2.22-1.82,.77-.61,1.49-1.65,2.32-1.75,2.09-.25,4.22-.08,6.74-.08Z"/><path class="cls-1" d="M244.97,455.44c2.42,0,4.55-.17,6.63,.08,.88,.1,1.65,1.07,2.47,1.65-.82,.67-1.59,1.83-2.47,1.92-2.66,.25-5.39,.28-8.04-.03-.87-.1-2.16-1.44-2.26-2.33-.31-2.65-.26-5.36-.04-8.03,.07-.85,1.12-1.61,1.72-2.41,.66,.83,1.78,1.61,1.9,2.52,.29,2.07,.09,4.2,.09,6.64Z"/></g></svg>