<?xml version="1.0" encoding="UTF-8"?><svg id="Capa_1" xmlns="http://www.w3.org/2000/svg" viewBox="0 0 300 79.85"><defs><style>.cls-1{fill:#fff;}</style></defs><g><path class="cls-1" d="M217.35,33.76c-.41-.42-.89-.74-1.45-.97-.56-.23-1.18-.34-1.87-.34h-3.86v9.4h3.86c.69,0,1.32-.11,1.88-.34,.56-.23,1.05-.55,1.45-.97,.4-.42,.71-.91,.93-1.49,.21-.58,.32-1.21,.32-1.9s-.11-1.33-.32-1.91c-.21-.57-.53-1.07-.93-1.48Zm-.96,4.59c-.12,.36-.29,.66-.52,.91-.23,.25-.5,.44-.83,.58-.32,.14-.69,.21-1.09,.21h-1.77v-5.78h1.77c.4,0,.77,.07,1.09,.21,.32,.14,.6,.33,.83,.58s.4,.55,.52,.91c.12,.35,.17,.75,.17,1.19s-.06,.84-.17,1.2Z"/><polygon class="cls-1" points="222.4 37.92 226.14 37.92 226.14 36.2 222.4 36.2 222.4 34.23 226.78 34.23 226.78 32.45 220.43 32.45 220.43 41.86 226.88 41.86 226.88 40.08 222.4 40.08 222.4 37.92"/><path class="cls-1" d="M234.47,32.85c-.45-.26-.95-.4-1.52-.4h-3.99v9.4h2.02v-3.29h1.97c.56,0,1.07-.14,1.52-.41s.8-.64,1.07-1.11c.26-.47,.4-.99,.4-1.57s-.13-1.09-.4-1.54c-.26-.46-.62-.82-1.07-1.08Zm-.76,3.28c-.1,.19-.24,.34-.41,.45-.17,.11-.36,.17-.58,.17h-1.77v-2.49h1.77c.21,0,.41,.05,.58,.16,.17,.11,.31,.25,.41,.43,.1,.18,.15,.39,.15,.63s-.05,.46-.15,.64Z"/><path class="cls-1" d="M245.33,33.65c-.43-.44-.94-.78-1.52-1.02-.58-.24-1.22-.36-1.91-.36s-1.33,.12-1.91,.36c-.58,.24-1.09,.58-1.53,1.01-.43,.44-.77,.95-1,1.54-.23,.59-.35,1.24-.35,1.95s.12,1.34,.35,1.94c.23,.6,.57,1.11,1,1.55,.43,.43,.94,.77,1.53,1.02,.58,.24,1.22,.36,1.92,.36s1.32-.12,1.9-.36c.58-.24,1.08-.58,1.52-1.02,.43-.44,.77-.95,1-1.54,.23-.59,.35-1.24,.35-1.93s-.12-1.34-.35-1.93c-.23-.59-.57-1.11-1-1.55Zm-.9,4.66c-.14,.36-.33,.67-.57,.93-.24,.26-.53,.47-.86,.62-.33,.15-.7,.22-1.1,.22s-.76-.07-1.09-.22c-.33-.15-.62-.35-.87-.62-.25-.26-.44-.58-.57-.93-.13-.36-.19-.75-.19-1.18s.07-.82,.19-1.18c.13-.36,.32-.67,.57-.93,.25-.26,.54-.47,.87-.62,.33-.15,.69-.22,1.09-.22s.77,.07,1.1,.22c.33,.15,.62,.35,.86,.62,.24,.26,.43,.58,.57,.93,.14,.36,.21,.75,.21,1.18s-.07,.82-.21,1.18Z"/><path class="cls-1" d="M254.28,37.13c-.28-.23-.62-.42-1.01-.58-.39-.16-.84-.29-1.33-.39-.26-.05-.5-.12-.71-.19-.21-.07-.4-.16-.55-.25-.15-.09-.27-.2-.35-.33-.08-.13-.12-.27-.12-.43,0-.2,.06-.37,.18-.52,.12-.15,.29-.26,.5-.34,.21-.08,.47-.11,.77-.11,.27,0,.53,.04,.79,.13,.26,.08,.49,.21,.71,.38,.22,.17,.42,.38,.61,.63l1.28-1.24c-.21-.35-.48-.65-.8-.89-.32-.25-.69-.43-1.12-.56-.43-.13-.93-.19-1.5-.19-.47,0-.91,.07-1.32,.2s-.78,.33-1.1,.58c-.32,.25-.57,.55-.75,.89-.18,.35-.27,.72-.27,1.12s.06,.75,.18,1.06c.12,.31,.31,.59,.56,.84,.25,.25,.56,.45,.94,.62s.82,.31,1.32,.42c.23,.04,.45,.08,.64,.14,.2,.06,.38,.12,.54,.2,.16,.08,.3,.16,.42,.25,.12,.09,.21,.2,.27,.32,.06,.12,.09,.25,.09,.4,0,.2-.06,.36-.19,.5-.13,.14-.3,.25-.52,.33-.22,.08-.47,.12-.75,.12-.51,0-.98-.11-1.42-.33-.43-.22-.87-.63-1.31-1.24l-1.26,1.44c.3,.39,.63,.73,1,1.01,.37,.28,.8,.49,1.28,.63,.48,.14,1.01,.22,1.59,.22,.72,0,1.34-.12,1.88-.36,.54-.24,.96-.58,1.26-1.03,.3-.45,.46-.99,.46-1.62,0-.39-.08-.73-.23-1.04-.15-.31-.37-.58-.65-.81Z"/><polygon class="cls-1" points="256.74 34.19 258.31 34.19 258.31 40.12 256.74 40.12 256.74 41.86 261.9 41.86 261.9 40.12 260.33 40.12 260.33 34.19 261.9 34.19 261.9 32.45 256.74 32.45 256.74 34.19"/><polygon class="cls-1" points="263.32 34.27 266.06 34.27 266.06 41.86 268.08 41.86 268.08 34.27 270.9 34.27 270.9 32.45 263.32 32.45 263.32 34.27"/></g><g><path class="cls-1" d="M8.83,45.35v-9.15h3.71c.53,0,.99,.09,1.38,.28,.39,.19,.69,.45,.9,.8,.21,.34,.31,.75,.31,1.22,0,.5-.14,.94-.43,1.3s-.68,.61-1.18,.75l-.03-.25c.43,.08,.8,.23,1.11,.45,.31,.22,.56,.5,.74,.82,.18,.32,.27,.68,.27,1.08s-.07,.78-.21,1.11c-.14,.33-.34,.61-.59,.85-.26,.23-.57,.42-.93,.54-.36,.13-.76,.19-1.21,.19h-3.84Zm1.02-5.21h2.61c.31,0,.59-.06,.84-.19,.24-.13,.44-.3,.58-.52,.14-.22,.21-.47,.21-.75,0-.44-.15-.8-.45-1.07-.3-.27-.72-.41-1.26-.41h-2.52v2.94Zm0,4.22h2.74c.39,0,.73-.07,1.03-.2,.29-.14,.52-.33,.68-.58s.24-.54,.24-.88c0-.31-.08-.59-.25-.82s-.41-.42-.71-.55c-.3-.13-.65-.2-1.05-.2h-2.68v3.23Z"/><path class="cls-1" d="M19.86,45.48c-.59,0-1.13-.15-1.61-.46-.48-.31-.86-.73-1.14-1.27-.28-.54-.42-1.14-.42-1.82s.14-1.3,.43-1.83c.29-.53,.67-.95,1.16-1.25,.48-.31,1.03-.46,1.63-.46,.36,0,.69,.05,.99,.16,.3,.1,.58,.25,.82,.44,.24,.19,.44,.41,.6,.65s.27,.52,.33,.8l-.29-.14,.04-1.76h.98v6.82h-.99v-1.67l.26-.17c-.06,.26-.18,.51-.35,.75-.17,.24-.39,.45-.63,.63-.25,.18-.53,.33-.84,.43-.31,.1-.63,.16-.97,.16Zm.22-.94c.45,0,.86-.11,1.22-.33,.36-.22,.64-.53,.84-.93s.31-.85,.31-1.35-.1-.95-.31-1.35c-.2-.39-.49-.7-.84-.93-.36-.23-.76-.34-1.22-.34s-.87,.11-1.22,.34c-.35,.23-.63,.54-.84,.93-.2,.39-.31,.84-.31,1.35s.1,.94,.3,1.34c.2,.4,.48,.71,.84,.93,.36,.23,.77,.34,1.23,.34Z"/><path class="cls-1" d="M25.32,45.35v-9.67h.98v9.67h-.98Z"/><path class="cls-1" d="M30.77,45.48c-.59,0-1.13-.15-1.61-.46-.48-.31-.86-.73-1.14-1.27-.28-.54-.42-1.14-.42-1.82s.14-1.3,.43-1.83c.29-.53,.67-.95,1.16-1.25,.48-.31,1.03-.46,1.63-.46,.36,0,.69,.05,.99,.16,.3,.1,.58,.25,.82,.44,.24,.19,.44,.41,.6,.65s.27,.52,.33,.8l-.29-.14,.04-1.76h.98v6.82h-.99v-1.67l.26-.17c-.06,.26-.18,.51-.35,.75-.17,.24-.39,.45-.63,.63-.25,.18-.53,.33-.84,.43-.31,.1-.63,.16-.97,.16Zm.22-.94c.45,0,.86-.11,1.22-.33,.36-.22,.64-.53,.84-.93s.31-.85,.31-1.35-.1-.95-.31-1.35c-.2-.39-.49-.7-.84-.93-.36-.23-.76-.34-1.22-.34s-.87,.11-1.22,.34c-.35,.23-.63,.54-.84,.93-.2,.39-.31,.84-.31,1.35s.1,.94,.3,1.34c.2,.4,.48,.71,.84,.93,.36,.23,.77,.34,1.23,.34Z"/><path class="cls-1" d="M36.21,45.35v-6.82h.97l.04,1.42-.16,.07c.09-.3,.26-.57,.51-.81,.25-.24,.56-.44,.91-.59,.35-.15,.72-.23,1.09-.23,.51,0,.93,.1,1.27,.3s.6,.51,.77,.93c.17,.42,.26,.95,.26,1.59v4.14h-.99v-4.09c0-.45-.06-.83-.18-1.12-.12-.29-.3-.51-.54-.65-.24-.14-.54-.21-.9-.2-.3,0-.57,.05-.82,.15-.25,.1-.47,.24-.65,.41-.18,.17-.33,.38-.43,.6-.1,.23-.16,.47-.16,.73v4.16h-.98Z"/><path class="cls-1" d="M46.61,45.48c-.65,0-1.22-.15-1.73-.46s-.9-.73-1.2-1.27c-.29-.54-.44-1.14-.44-1.82s.15-1.29,.44-1.82,.69-.96,1.2-1.26c.51-.31,1.08-.46,1.74-.46,.58,0,1.12,.12,1.59,.35,.48,.23,.86,.55,1.15,.96l-.58,.71c-.17-.22-.36-.41-.59-.58-.23-.17-.48-.29-.75-.39-.27-.09-.53-.14-.79-.14-.46,0-.88,.12-1.24,.35-.37,.23-.66,.54-.87,.93-.21,.39-.32,.84-.32,1.35s.11,.96,.32,1.35c.21,.4,.5,.71,.87,.93,.37,.23,.77,.34,1.23,.34,.26,0,.52-.04,.77-.12,.25-.08,.49-.2,.72-.36,.23-.16,.44-.35,.63-.59l.58,.71c-.3,.39-.69,.71-1.19,.94-.5,.24-1.01,.35-1.54,.35Z"/><path class="cls-1" d="M53.62,45.48c-.68,0-1.28-.15-1.81-.44-.53-.3-.94-.71-1.23-1.24-.3-.53-.44-1.14-.44-1.83,0-.53,.08-1.01,.25-1.44,.17-.43,.4-.81,.7-1.13s.66-.57,1.08-.75c.42-.18,.87-.27,1.36-.27,.46,0,.88,.08,1.26,.25,.38,.17,.71,.39,.98,.69s.48,.64,.62,1.04c.14,.4,.2,.84,.18,1.32v.46h-5.7l-.14-.82h5.08l-.24,.22v-.31c-.02-.31-.11-.62-.27-.91-.17-.29-.4-.53-.7-.71-.3-.18-.66-.27-1.08-.27-.49,0-.91,.1-1.27,.29-.36,.2-.63,.49-.82,.87-.19,.38-.29,.86-.29,1.42s.1,1.01,.31,1.41,.51,.7,.9,.92,.86,.33,1.4,.33c.32,0,.64-.05,.96-.16,.32-.11,.67-.32,1.05-.65l.51,.71c-.2,.2-.44,.38-.72,.53s-.58,.27-.92,.37c-.33,.09-.67,.14-1.02,.14Z"/></g><g><path class="cls-1" d="M65.87,45.15v-8.69l.57,1.3-2.29,1.09-.44-2.33,3.04-1.48h1.68v10.11h-2.55Zm-1.96,.75v-2.29h6.52v2.29h-6.52Z"/><path class="cls-1" d="M76.38,46.05c-.96,0-1.78-.22-2.46-.66s-1.2-1.07-1.55-1.89c-.36-.82-.54-1.81-.54-2.96s.18-2.14,.54-2.96c.36-.82,.87-1.45,1.55-1.89s1.5-.66,2.46-.66,1.78,.22,2.46,.66c.68,.44,1.2,1.07,1.56,1.89,.36,.82,.54,1.81,.54,2.96s-.18,2.14-.54,2.96c-.36,.82-.88,1.45-1.56,1.89-.68,.44-1.5,.66-2.46,.66Zm0-2.2c.66,0,1.18-.29,1.54-.86,.36-.57,.54-1.39,.54-2.45s-.18-1.93-.54-2.52c-.36-.59-.87-.88-1.54-.88s-1.18,.29-1.54,.88c-.36,.59-.54,1.43-.54,2.52s.18,1.88,.54,2.45c.36,.57,.87,.86,1.54,.86Z"/><path class="cls-1" d="M85.86,46.01c-.81,0-1.54-.16-2.2-.49-.66-.33-1.2-.79-1.63-1.41l1.39-1.53c.42,.46,.81,.77,1.16,.94s.75,.25,1.19,.25c.33,0,.62-.07,.87-.2,.25-.13,.46-.32,.6-.56,.15-.24,.22-.51,.22-.8s-.07-.58-.22-.82c-.15-.24-.35-.43-.6-.57s-.54-.21-.86-.21c-.23,0-.45,.02-.66,.06-.2,.04-.42,.11-.65,.21s-.5,.24-.82,.42l-1.1-1.47,.66-4.73h6.15v2.19h-4.91l.67-.86-.5,3.4-.92-.31c.19-.17,.43-.33,.71-.46,.28-.13,.58-.24,.91-.33,.33-.09,.65-.13,.98-.13,.67,0,1.28,.16,1.81,.47,.54,.31,.96,.74,1.28,1.29s.47,1.18,.47,1.9-.18,1.34-.54,1.9-.84,1.01-1.44,1.35c-.6,.33-1.29,.5-2.05,.5Z"/><path class="cls-1" d="M92.62,46.07c-.42,0-.74-.12-.97-.35s-.34-.57-.34-1.01c0-.41,.12-.74,.37-.99s.56-.38,.95-.38c.42,0,.74,.12,.98,.36,.23,.24,.35,.58,.35,1.02,0,.4-.12,.72-.37,.98-.24,.25-.57,.38-.96,.38Z"/><path class="cls-1" d="M97.78,45.9l-.06-.15,3.35-6.76,.44,.92c-.1,.37-.27,.7-.49,.99-.22,.3-.49,.55-.8,.77-.31,.22-.63,.39-.97,.5-.34,.12-.66,.18-.96,.18-.58,0-1.12-.16-1.61-.47s-.88-.74-1.18-1.27c-.3-.53-.44-1.11-.44-1.73,0-.73,.18-1.4,.53-2,.35-.6,.83-1.07,1.43-1.42,.6-.35,1.28-.53,2.03-.53,.55,0,1.07,.1,1.55,.29,.48,.19,.9,.46,1.26,.8,.36,.34,.64,.74,.85,1.19,.2,.45,.31,.92,.31,1.42,0,.37-.03,.73-.09,1.08-.06,.35-.16,.71-.29,1.08-.13,.37-.29,.75-.47,1.15-.18,.4-.38,.83-.62,1.3l-1.35,2.66h-2.42Zm1.13-5.6c.32,0,.6-.07,.84-.21,.24-.14,.44-.33,.57-.57,.14-.24,.21-.51,.21-.8,0-.32-.07-.6-.21-.85s-.33-.45-.57-.59c-.24-.14-.52-.21-.83-.21s-.57,.07-.8,.21-.41,.33-.55,.58-.21,.54-.21,.86c0,.28,.07,.53,.21,.77,.14,.24,.32,.44,.56,.59,.23,.15,.49,.23,.78,.23Z"/><path class="cls-1" d="M107.74,46.01c-.81,0-1.54-.16-2.2-.49-.66-.33-1.2-.79-1.63-1.41l1.39-1.53c.42,.46,.81,.77,1.16,.94s.75,.25,1.19,.25c.33,0,.62-.07,.87-.2,.25-.13,.46-.32,.6-.56,.15-.24,.22-.51,.22-.8s-.07-.58-.22-.82c-.15-.24-.35-.43-.6-.57s-.54-.21-.86-.21c-.23,0-.45,.02-.66,.06-.2,.04-.42,.11-.65,.21s-.5,.24-.82,.42l-1.1-1.47,.66-4.73h6.15v2.19h-4.91l.67-.86-.5,3.4-.92-.31c.19-.17,.43-.33,.71-.46,.28-.13,.58-.24,.91-.33,.33-.09,.65-.13,.98-.13,.67,0,1.28,.16,1.81,.47,.54,.31,.96,.74,1.28,1.29s.47,1.18,.47,1.9-.18,1.34-.54,1.9-.84,1.01-1.44,1.35c-.6,.33-1.29,.5-2.05,.5Z"/></g><g><path class="cls-1" d="M114.73,46.07v-10.71h2.6v10.71h-2.6Zm1.01-4.18l.02-2.33h6.99v2.33h-7.01Zm5.63,4.18v-10.71h2.6v10.71h-2.6Z"/><path class="cls-1" d="M126.65,46.07v-10.71h4.73c.73,0,1.36,.1,1.87,.31,.51,.21,.9,.51,1.15,.9,.26,.39,.39,.87,.39,1.42,0,.61-.15,1.13-.45,1.54s-.74,.7-1.31,.84l-.03-.29c.48,.1,.89,.28,1.25,.54s.62,.57,.82,.94c.19,.37,.29,.79,.29,1.26,0,.54-.09,1.01-.28,1.42-.18,.4-.45,.74-.8,1.02s-.75,.48-1.22,.61c-.46,.13-.98,.2-1.54,.2h-4.88Zm2.45-6.41h1.91c.26,0,.49-.04,.68-.13,.19-.09,.33-.21,.43-.37,.1-.16,.15-.35,.15-.57,0-.33-.11-.58-.34-.77-.22-.19-.56-.28-1.01-.28h-1.82v2.13Zm0,4.24h2.34c.29,0,.53-.05,.73-.14s.35-.23,.47-.41c.11-.18,.17-.39,.17-.65,0-.24-.06-.43-.18-.6s-.28-.29-.5-.38c-.21-.09-.47-.13-.77-.13h-2.26v2.29Z"/><path class="cls-1" d="M136.01,46.07l4.24-10.71h2.2l4.21,10.71h-2.63l-2.02-5.43c-.08-.21-.16-.44-.25-.69-.08-.25-.16-.5-.24-.76-.08-.26-.16-.51-.24-.76-.08-.25-.14-.48-.19-.7h.46c-.06,.24-.13,.49-.21,.73-.08,.25-.15,.49-.23,.73-.08,.24-.16,.48-.25,.72-.09,.24-.18,.49-.26,.74l-2.02,5.42h-2.57Zm2.02-2.05l.81-1.96h4.93l.8,1.96h-6.53Z"/><path class="cls-1" d="M147.99,46.07v-10.71h4.82c.68,0,1.3,.15,1.86,.44,.56,.3,.99,.7,1.31,1.22,.32,.51,.47,1.1,.47,1.75s-.16,1.28-.47,1.81c-.32,.54-.75,.96-1.3,1.26-.55,.31-1.17,.46-1.87,.46h-2.34v3.76h-2.48Zm2.48-5.75h2.11c.26,0,.5-.06,.7-.18s.35-.28,.46-.5c.11-.21,.16-.46,.16-.73s-.06-.52-.18-.73c-.12-.21-.3-.37-.53-.48s-.51-.17-.83-.17h-1.88v2.78Zm3.46,5.75l-2.72-4.83,2.66-.38,3.03,5.22h-2.97Z"/></g><path class="cls-1" d="M173.03,40.07l-4.41-4.41c-.18-.18-.46-.18-.64,0l-.72,.72c-.18,.18-.18,.46,0,.64l3.38,3.38-3.38,3.38c-.18,.18-.18,.46,0,.64l.72,.72c.18,.18,.46,.18,.64,0l4.41-4.41c.09-.09,.13-.21,.13-.32,0-.12-.04-.23-.13-.32Z"/><path class="cls-1" d="M179.06,40.07l-4.41-4.41c-.18-.18-.46-.18-.64,0l-.72,.72c-.18,.18-.18,.46,0,.64l3.38,3.38-3.38,3.38c-.18,.18-.18,.46,0,.64l.72,.72c.18,.18,.46,.18,.64,0l4.41-4.41c.09-.09,.13-.21,.13-.32,0-.12-.04-.23-.13-.32Z"/><polygon class="cls-1" points="260.19 48.26 259.32 69.57 265.6 65.06 268.99 72.5 273.51 70.39 269.95 62.94 277.12 60.89 260.19 48.26"/><path class="cls-1" d="M283.31,17.84h-86.99c-2.01,0-3.65,1.64-3.65,3.65V59.32l.03,.21c.03,.1,.79,2.49,3.12,2.49h61.71c.01-.42,.03-.89,.04-1.4h-61.75c-1.12,0-1.63-1.09-1.75-1.41v-3.34c.62,.49,1.4,.8,2.25,.8h61.37c.01-.49,.03-.97,.04-1.41h-61.41c-1.24,0-2.25-1.01-2.25-2.25V21.5c0-1.24,1.01-2.25,2.25-2.25h86.99c1.24,0,2.25,1.01,2.25,2.25v31.5c0,1.24-1.01,2.25-2.25,2.25h-10.82l1.92,1.41h8.9c.85,0,1.63-.31,2.25-.8v3.16c0,1.4-1.25,1.58-1.44,1.6h-4.3l1.92,1.4h2.43c.97-.07,2.8-.78,2.8-3V21.5c0-2.01-1.64-3.65-3.65-3.65Z"/></svg>